<?xml version="1.0" encoding="UTF-8" standalone="no"?>
<!-- Created with Inkscape (http://www.inkscape.org/) -->

<svg
   width="140.4807"
   height="19.999996"
   viewBox="0 0 37.16885 5.2916656"
   version="1.1"
   id="svg1"
   xmlns="http://www.w3.org/2000/svg"
   xmlns:svg="http://www.w3.org/2000/svg">
  <defs
     id="defs1">
    <rect
       x="257.89871"
       y="492.31445"
       width="244.98245"
       height="73.216797"
       id="rect76514-4-3" />
  </defs>
  <g
     id="layer1"
     transform="translate(-57.943763,-77.787496)">
    <g
       id="text76490-0-7"
       style="font-size:28px;line-height:1.25;white-space:pre;fill:#ffffff"
       transform="matrix(0.2448119,0,0,0.2448119,-5.72837,-43.70615)"
       aria-label="krellianHub">
      <g
         id="g2">
        <path
           style="font-family:'Arial Rounded MT Bold';-inkscape-font-specification:'Arial Rounded MT Bold, '"
           d="m 269.12305,516.1797 -3.29493,-5.41407 -2.02343,1.91407 v 2.96679 q 0,1.08008 -0.57422,1.66797 -0.56055,0.57422 -1.29883,0.57422 -0.86133,0 -1.35352,-0.57422 -0.49218,-0.57422 -0.49218,-1.69531 v -15.91406 q 0,-1.24414 0.47851,-1.88672 0.47852,-0.65625 1.36719,-0.65625 0.86133,0 1.36719,0.58789 0.50586,0.58789 0.50586,1.73633 v 9.05078 l 4.19726,-4.40235 q 0.7793,-0.82031 1.18946,-1.12109 0.41015,-0.30078 0.99804,-0.30078 0.69727,0 1.16211,0.45117 0.46485,0.4375 0.46485,1.10742 0,0.82032 -1.51758,2.1875 l -1.98242,1.81836 3.82812,6.01563 q 0.42383,0.66992 0.60156,1.02539 0.19141,0.3418 0.19141,0.65625 0,0.88867 -0.49219,1.4082 -0.47851,0.50586 -1.27148,0.50586 -0.6836,0 -1.05274,-0.36914 -0.36914,-0.36914 -0.99804,-1.33984 z m 10.45898,-3.67774 v 3.11719 q 0,1.13477 -0.5332,1.70898 -0.53321,0.56055 -1.35352,0.56055 -0.80664,0 -1.32617,-0.57422 -0.51953,-0.57422 -0.51953,-1.69531 v -10.39063 q 0,-2.51562 1.81836,-2.51562 0.92969,0 1.33984,0.58789 0.41016,0.58789 0.45117,1.73633 0.66993,-1.14844 1.36719,-1.73633 0.71094,-0.58789 1.88672,-0.58789 1.17578,0 2.2832,0.58789 1.10743,0.58789 1.10743,1.55859 0,0.6836 -0.47852,1.13477 -0.46484,0.4375 -1.01172,0.4375 -0.20508,0 -0.99805,-0.24609 -0.77929,-0.25977 -1.38086,-0.25977 -0.82031,0 -1.33984,0.4375 -0.51953,0.42383 -0.80664,1.27148 -0.28711,0.84766 -0.39648,2.02344 -0.10938,1.16211 -0.10938,2.84375 z m 18.2793,-1.28515 h -7.30078 q 0.0137,1.27148 0.50586,2.24218 0.50586,0.97071 1.32617,1.46289 0.83398,0.49219 1.83203,0.49219 0.66992,0 1.2168,-0.15039 0.56054,-0.16406 1.08007,-0.49219 0.51954,-0.34179 0.95704,-0.72461 0.4375,-0.38281 1.13476,-1.03906 0.28711,-0.24609 0.82031,-0.24609 0.57422,0 0.92969,0.31445 0.35547,0.31445 0.35547,0.88867 0,0.50586 -0.39648,1.18946 -0.39649,0.66992 -1.20313,1.29882 -0.79297,0.61524 -2.00977,1.02539 -1.20312,0.41016 -2.77539,0.41016 -3.5957,0 -5.59179,-2.05078 -1.9961,-2.05078 -1.9961,-5.56445 0,-1.6543 0.49219,-3.0625 0.49219,-1.42188 1.43555,-2.4336 0.94336,-1.01172 2.32422,-1.54492 1.38086,-0.54687 3.0625,-0.54687 2.1875,0 3.74609,0.92968 1.57227,0.91602 2.35156,2.37891 0.7793,1.46289 0.7793,2.98047 0,1.4082 -0.80664,1.83203 -0.80664,0.41016 -2.26953,0.41016 z m -7.30078,-2.11914 h 6.76757 q -0.13671,-1.91407 -1.03906,-2.85743 -0.88867,-0.95703 -2.35156,-0.95703 -1.39453,0 -2.29688,0.97071 -0.88867,0.95703 -1.08007,2.84375 z m 13.52148,6.52148 v -16.1875 q 0,-1.12109 0.49219,-1.69531 0.50586,-0.57422 1.35351,-0.57422 0.84766,0 1.36719,0.57422 0.51953,0.56054 0.51953,1.69531 v 16.1875 q 0,1.13477 -0.5332,1.70898 -0.51953,0.56055 -1.35352,0.56055 -0.82031,0 -1.33984,-0.58789 -0.50586,-0.58789 -0.50586,-1.68164 z m 7.58789,0 v -16.1875 q 0,-1.12109 0.49219,-1.69531 0.50586,-0.57422 1.35351,-0.57422 0.84766,0 1.36719,0.57422 0.51953,0.56054 0.51953,1.69531 v 16.1875 q 0,1.13477 -0.5332,1.70898 -0.51953,0.56055 -1.35352,0.56055 -0.82031,0 -1.33984,-0.58789 -0.50586,-0.58789 -0.50586,-1.68164 z m 11.32031,-10.78711 v 10.78711 q 0,1.12109 -0.5332,1.69531 -0.5332,0.57422 -1.35351,0.57422 -0.82032,0 -1.33985,-0.58789 -0.50586,-0.58789 -0.50586,-1.68164 v -10.67773 q 0,-1.10743 0.50586,-1.66797 0.51953,-0.56055 1.33985,-0.56055 0.82031,0 1.35351,0.56055 0.5332,0.56054 0.5332,1.55859 z m -1.8457,-3.85547 q -0.7793,0 -1.33984,-0.47851 -0.54688,-0.47852 -0.54688,-1.35352 0,-0.79297 0.56055,-1.29883 0.57422,-0.51953 1.32617,-0.51953 0.72461,0 1.28516,0.46484 0.56054,0.46485 0.56054,1.35352 0,0.86133 -0.54687,1.35352 -0.54688,0.47851 -1.29883,0.47851 z m 15.13477,14.80664 q -1.35352,1.05274 -2.625,1.58594 -1.25782,0.51953 -2.83008,0.51953 -1.43555,0 -2.5293,-0.56055 -1.08008,-0.57421 -1.66797,-1.54492 -0.58789,-0.9707 -0.58789,-2.10547 0,-1.53125 0.97071,-2.61132 0.9707,-1.08008 2.66601,-1.44922 0.35547,-0.082 1.76367,-0.36914 1.40821,-0.28711 2.40625,-0.51954 1.01172,-0.24609 2.1875,-0.58789 -0.0684,-1.47656 -0.60156,-2.16015 -0.51953,-0.69727 -2.17383,-0.69727 -1.42187,0 -2.14648,0.39649 -0.71094,0.39648 -1.23047,1.18945 -0.50586,0.79297 -0.72461,1.05273 -0.20508,0.2461 -0.90234,0.2461 -0.62891,0 -1.09375,-0.39649 -0.45118,-0.41015 -0.45118,-1.03906 0,-0.98437 0.69727,-1.91406 0.69727,-0.92969 2.17383,-1.53125 1.47656,-0.60156 3.67773,-0.60156 2.46094,0 3.86914,0.58789 1.40821,0.57422 1.98242,1.83203 0.5879,1.25781 0.5879,3.33594 0,1.3125 -0.0137,2.22851 0,0.91602 -0.0137,2.03711 0,1.05273 0.3418,2.20117 0.35547,1.13477 0.35547,1.46289 0,0.57422 -0.54688,1.05274 -0.5332,0.46484 -1.21679,0.46484 -0.57422,0 -1.13477,-0.5332 -0.56055,-0.54688 -1.18945,-1.57227 z m -0.2461,-5.40039 q -0.82031,0.30078 -2.39258,0.64258 -1.55859,0.32812 -2.16015,0.49219 -0.60156,0.15039 -1.14844,0.61523 -0.54687,0.45117 -0.54687,1.27149 0,0.84765 0.64257,1.44921 0.64258,0.5879 1.68164,0.5879 1.10743,0 2.03711,-0.47852 0.94336,-0.49219 1.38086,-1.25781 0.50586,-0.84766 0.50586,-2.78907 z m 10.8418,-5.60547 v 0.45117 q 0.98437,-1.29882 2.14648,-1.90039 1.17579,-0.61523 2.69336,-0.61523 1.47657,0 2.63868,0.64258 1.1621,0.64258 1.73632,1.81836 0.36914,0.68359 0.47852,1.47656 0.10937,0.79297 0.10937,2.02344 v 6.94531 q 0,1.12109 -0.51953,1.69531 -0.50586,0.57422 -1.32617,0.57422 -0.83398,0 -1.35351,-0.58789 -0.51954,-0.58789 -0.51954,-1.68164 v -6.2207 q 0,-1.84571 -0.51953,-2.81641 -0.50586,-0.98437 -2.03711,-0.98437 -0.99804,0 -1.81836,0.60156 -0.82031,0.58789 -1.20312,1.62695 -0.27344,0.83399 -0.27344,3.11719 v 4.67578 q 0,1.13477 -0.5332,1.70898 -0.51953,0.56055 -1.35352,0.56055 -0.80664,0 -1.32617,-0.58789 -0.51953,-0.58789 -0.51953,-1.68164 v -10.78711 q 0,-1.06641 0.46484,-1.58594 0.46485,-0.5332 1.27149,-0.5332 0.49219,0 0.88867,0.23242 0.39648,0.23242 0.62891,0.69727 0.24609,0.46484 0.24609,1.13476 z"
           id="path1" />
        <path
           style="font-family:'Open Sans';-inkscape-font-specification:'Open Sans'"
           d="m 376.39258,517.54688 h -2.32422 v -9.40625 h -10.52734 v 9.40625 H 361.2168 V 497.5586 h 2.32422 v 8.50391 h 10.52734 v -8.50391 h 2.32422 z m 7.27344,-14.98437 v 9.7207 q 0,1.83203 0.83398,2.73438 0.83398,0.90234 2.61133,0.90234 2.35156,0 3.43164,-1.28516 1.09375,-1.28515 1.09375,-4.19726 v -7.875 h 2.26953 v 14.98437 h -1.87305 l -0.32812,-2.00976 h -0.12305 q -0.69726,1.10742 -1.94141,1.69531 -1.23046,0.58789 -2.8164,0.58789 -2.73438,0 -4.10156,-1.29883 -1.35352,-1.29882 -1.35352,-4.15625 v -9.80273 z m 22.02539,-0.24609 q 2.95312,0 4.58007,2.02343 1.64063,2.00977 1.64063,5.70117 0,3.69141 -1.6543,5.74219 -1.64062,2.03711 -4.5664,2.03711 -1.46289,0 -2.67969,-0.5332 -1.20313,-0.54688 -2.02344,-1.66797 h -0.16406 l -0.47852,1.92773 h -1.62695 v -21.27343 h 2.26953 v 5.16797 q 0,1.73632 -0.10937,3.11718 h 0.10937 q 1.58594,-2.24218 4.70313,-2.24218 z m -0.32813,1.90039 q -2.32422,0 -3.34961,1.33984 -1.02539,1.32617 -1.02539,4.48437 0,3.15821 1.05274,4.5254 1.05273,1.35351 3.37695,1.35351 2.0918,0 3.11719,-1.51758 1.02539,-1.53125 1.02539,-4.38867 0,-2.92578 -1.02539,-4.36133 -1.02539,-1.43554 -3.17188,-1.43554 z"
           id="path2" />
      </g>
    </g>
  </g>
</svg>
